<?xml version="1.0" encoding="UTF-8" standalone="no"?>
<!-- Created with Inkscape (http://www.inkscape.org/) -->

<svg
   xmlns:dc="http://purl.org/dc/elements/1.1/"
   xmlns:cc="http://creativecommons.org/ns#"
   xmlns:rdf="http://www.w3.org/1999/02/22-rdf-syntax-ns#"
   xmlns:svg="http://www.w3.org/2000/svg"
   xmlns="http://www.w3.org/2000/svg"
   xmlns:sodipodi="http://sodipodi.sourceforge.net/DTD/sodipodi-0.dtd"
   xmlns:inkscape="http://www.inkscape.org/namespaces/inkscape"
   width="205.13202mm"
   height="72.834595mm"
   viewBox="0 0 205.13202 72.834595"
   version="1.1"
   id="svg1472"
   inkscape:version="0.92.4 5da689c313, 2019-01-14"
   sodipodi:docname="nadpis.svg">
  <defs
     id="defs1466" />
  <sodipodi:namedview
     id="base"
     pagecolor="#ffffff"
     bordercolor="#666666"
     borderopacity="1.0"
     inkscape:pageopacity="0.0"
     inkscape:pageshadow="2"
     inkscape:zoom="0.98994949"
     inkscape:cx="119.01822"
     inkscape:cy="16.621208"
     inkscape:document-units="mm"
     inkscape:current-layer="layer1"
     showgrid="false"
     inkscape:window-width="941"
     inkscape:window-height="1031"
     inkscape:window-x="967"
     inkscape:window-y="12"
     inkscape:window-maximized="0" />
  <metadata
     id="metadata1469">
    <rdf:RDF>
      <cc:Work
         rdf:about="">
        <dc:format>image/svg+xml</dc:format>
        <dc:type
           rdf:resource="http://purl.org/dc/dcmitype/StillImage" />
        <dc:title></dc:title>
      </cc:Work>
    </rdf:RDF>
  </metadata>
  <g
     inkscape:groupmode="layer"
     id="layer2"
     inkscape:label="bg" />
  <g
     inkscape:label="Vrstva 1"
     inkscape:groupmode="layer"
     id="layer1"
     transform="translate(-239.12446,53.893485)">
    <g
       transform="matrix(0.32540678,0.09829218,-0.10877904,0.34083263,-279.44744,-19.147251)"
       style="font-style:normal;font-variant:normal;font-weight:normal;font-stretch:normal;font-size:192px;line-height:1.25;font-family:'Blox (BRK)';-inkscape-font-specification:'Blox (BRK)';letter-spacing:0px;word-spacing:0px;display:inline;fill:#000000;fill-opacity:1;stroke:none"
       id="flowRoot1510" />
    <g
       aria-label="p"
       style="font-style:normal;font-variant:normal;font-weight:normal;font-stretch:normal;font-size:10.58333302px;line-height:1.25;font-family:DepredationPixie;-inkscape-font-specification:DepredationPixie;letter-spacing:0px;word-spacing:0px;display:inline;fill:#ffffff;fill-opacity:1;stroke:none;stroke-width:0.26458332"
       id="text1016">
      <path
         d="m 423.53008,12.085043 h 0.2032 q 1.7272,-0.2032 3.3528,-0.9144 1.6764,-0.7112 3.3528,-1.0668 0.254,-0.1524 0.3048,-0.2032 0.0508,-0.1016 0.1524,-0.2032 V -7.5237568 q 0.2032,-0.2539999 0.254,-0.3555999 0.1016,-0.1524 0.1016,-0.1524 2.286,-0.6096 4.5212,-1.4224 2.286,-0.8128003 4.572,-1.4732003 0.1524,-0.1524 0.3048,-0.2032 0.1524,-0.0508 0.254,-0.1016 v -4.0132 l 0.3048,-0.4572 0.1524,-0.1016 q 1.6256,-0.3556 2.6924,-0.8636 l 0.2032,-0.254 v -3.0988 q -0.1016,-2.6416 -0.0508,-5.232399 0.0508,-2.5908 -0.0508,-5.1816 -0.8128,-0.3556 -1.5748,-0.5588 -0.762,-0.2032 -1.4732,-0.5588 l -0.2032,-0.3556 v -1.5748 l -0.254,-0.4064 q -5.08,-1.6764 -10.16,0.9652 -5.0292,2.54 -10.1092,3.556 0.0508,10.159999 0,20.2183993 -0.0508,10.05839982 0.1016,20.1167997 0.762,0.3556 1.524,0.5588 0.762,0.2032 1.524,0.5588 z m -0.1524,-0.9144 q -0.508,-0.2032 -1.0668,-0.3048 -0.508,-0.1016 -1.016,-0.4064 l -0.254,-0.3048 v -3.2004 l 0.3048,-0.0508 q 0.3556,0.1524 0.9144,0.4064 0.6096,0.2032 1.1684,0.3048 0.2032,0.8636 0.1016,1.7272 -0.0508,0.8636 0.0508,1.778 z m 0,-4.3688 q -0.5588,-0.2032 -1.1176,-0.4064 -0.5588,-0.2032 -1.1176,-0.4572 -0.1524,-0.7619999 -0.1016,-1.5747999 0.0508,-0.8636 0,-1.778 l 0.254,-0.1524 q 0.4572,0.3048 0.9652,0.4064 0.5588,0.1016 1.1176,0.3048 l 0.2032,0.4064 V 6.751043 Z m 0,-4.4195999 q -1.27,-0.5588 -1.9304,-0.6604 -0.1524,-0.0508 -0.4064,-0.4064 v -3.1495999 l 0.254,-0.1016 q 0.4572,0.1524 0.9652,0.3556 0.5588,0.2032 1.1176,0.3556 l 0.2032,0.40639995 V 2.1790431 Z m 0,-4.4195999 q -0.508,-0.254 -1.0668,-0.4064 -0.508,-0.1524 -1.016,-0.3556 l -0.254,-0.3048 v -3.2004 q 0.4572,0 1.016,0.254 0.6096,0.2032 1.2192,0.3048 l 0.3048,0.4064 v 3.1496 z m 0,-4.4196 q -0.508,-0.2032 -0.9652,-0.4064 -0.4572,-0.2032 -0.9652,-0.254 -0.2032,-0.0508 -0.4064,-0.4064 v -3.2004002 l 0.254,-0.0508 q 0.4572,0.1016 0.9652,0.3556 0.5588,0.2032 1.1176,0.3556 l 0.2032,0.4064003 v 2.9971999 z m 0.0508,-4.4196002 q -0.5588,-0.3048 -1.2192,-0.4064 -0.6604,-0.1524 -1.1684,-0.6096 v -3.2004 l 0.254,-0.1524 q 0.4572,0.3048 0.9652,0.4064 0.5588,0.1016 1.1176,0.3048 l 0.2032,0.4064 v 3.2004 z m 7.6708,-2.2352 q -0.1524,-0.1524 -0.1016,-0.3556 0.0508,-0.254 0,-0.508 l 0.3048,-0.0508 q 0.4572,0 1.2192,0.3556 -0.3048,0.1524 -0.6604,0.3048 -0.3556,0.1016 -0.7112,0.254 z m 2.794,-0.9144 q -0.508,-0.2032 -0.9652,-0.3556 -0.4572,-0.2032 -0.9652,-0.3556 0.4064,-0.1524 0.9144,-0.254 0.508,-0.1524 1.016,-0.4064 0.4064,0.1016 0.9144,0.3048 0.5588,0.2032 1.1176,0.3556 -0.4572,0.1016 -1.016,0.3556 -0.508,0.2032 -1.016,0.3556 z m -10.5156,-1.3208 q -0.5588,-0.254 -1.1176,-0.4064 -0.5588,-0.1524 -1.1176,-0.4572 -0.1524,-0.762 -0.1016,-1.5748 0.0508,-0.8636 0,-1.778 l 0.254,-0.1524 q 0.4064,0.2032 0.9144,0.4064 0.508,0.2032 1.1684,0.4064 l 0.2032,0.3556 v 3.0988 z m 7.7216,0 q -0.1524,-2.4892 -0.1016,-4.9276 0.0508,-2.4892 0,-5.079999 0.4064,-0.3556 1.016,-0.4064 0.6096,-0.1016 1.2192,-0.4572 h 0.254 q 0.1016,2.438399 0.0508,4.927599 -0.0508,2.4384 0,4.9276 -0.4572,0.508 -1.0668,0.6096 -0.6096,0.0508 -1.2192,0.4064 z m 5.4864,0 q -0.5588,-0.3048 -1.1684,-0.4064 -0.6096,-0.1524 -1.0668,-0.5588 v -3.3528 q 0.6096,0 1.1684,0.3556 0.5588,0.3048 1.2192,0.4064 0.254,0.8636 0.1524,1.7272 -0.1016,0.8636 0,1.778 z m -13.208,-4.4196 q -0.508,-0.2032 -1.0668,-0.3556 -0.508,-0.1524 -1.016,-0.4064 l -0.254,-0.3048 v -3.1496 q 0.508,0 1.0668,0.254 0.5588,0.2032 1.1684,0.254 l 0.3048,0.4064 v 3.2004 z m 13.208,0 q -0.5588,-0.3048 -1.1684,-0.4572 -0.6096,-0.1524 -1.0668,-0.4572 v -3.302 q 0.6096,0.0508 1.1684,0.254 0.5588,0.2032 1.2192,0.4572 0.254,0.8128 0.1524,1.6256 -0.1016,0.8128 0,1.6764 z m -13.208,-4.3688 q -0.5588,-0.253999 -1.1176,-0.457199 -0.5588,-0.2032 -1.1176,-0.4572 -0.1524,-0.762 -0.1016,-1.5748 0.0508,-0.8636 0,-1.778 l 0.254,-0.1524 q 0.4064,0.2032 0.9144,0.4064 0.508,0.2032 1.1684,0.4064 l 0.2032,0.4064 v 2.9972 z m 13.2588,0 q -0.4572,-0.203199 -1.016,-0.406399 -0.508,-0.254 -1.016,-0.3556 l -0.254,-0.3048 v -1.27 q 0.4572,-0.4064 1.1176,-0.4572 0.6604,-0.1016 1.27,-0.508 l 0.1524,0.254 v 2.8448 z m -12.6492,-4.267199 q -1.1176,-0.508 -1.9304,-0.6096 1.4732,-1.1684 3.4036,-0.3556 0.3048,0.2032 0.508,0.254 -0.4572,0.2032 -1.016,0.3048 -0.5588,0.0508 -0.9652,0.4064 z m 3.3528,-1.1176 q -0.508,-0.2032 -1.016,-0.3556 -0.4572,-0.1524 -0.9652,-0.3556 0.4064,-0.1524 0.8636,-0.254 0.4572,-0.1524 0.9652,-0.3556 0.4572,0 0.9652,0.254 0.5588,0.254 1.1176,0.3048 -0.3556,0.3556 -0.9652,0.4064 -0.6096,0 -0.9652,0.3556 z m 13.716,-0.2032 q -0.1524,-0.2032 -0.1016,-0.4064 0.0508,-0.254 0,-0.508 l 0.3556,-0.0508 q 0.2032,0.1016 0.508,0.2032 0.3556,0.1016 0.6604,0.254 -0.3048,0.2032 -0.6604,0.254 -0.3048,0.0508 -0.7112,0.254 z m -10.4648,-0.9144 q -1.0668,-0.508 -1.8796,-0.6604 1.7272,-1.1176 3.81,0 -0.508,0.254 -0.9652,0.3048 -0.4572,0.0508 -0.9652,0.3556 z m 3.3528,-1.1176 q -0.508,-0.1016 -0.9652,-0.3048 -0.4064,-0.254 -0.9652,-0.3048 l 0.2032,-0.1524 q 0.3556,-0.1016 0.6096,-0.2032 0.254,-0.1016 0.4572,-0.2032 0.6096,-0.254 1.2192,0.0508 0.6604,0.3048 1.3716,0.3556 -0.4064,0.3556 -0.9652,0.4064 -0.508,0.0508 -0.9652,0.3556 z m 3.302,-1.1176 q -0.508,-0.1524 -0.9652,-0.3048 -0.4572,-0.2032 -0.9652,-0.4064 0.1016,-0.0508 0.254,-0.0508 0.2032,-0.0508 0.3556,-0.1524 0.3048,0 0.6096,-0.1524 0.3048,-0.2032 0.7112,-0.254 0.4064,0.1524 0.9144,0.3048 0.508,0.1016 1.0668,0.3048 -0.508,0.254 -1.016,0.4064 -0.4572,0.1524 -0.9652,0.3048 z"
         style="font-style:normal;font-variant:normal;font-weight:normal;font-stretch:normal;font-size:50.79999924px;font-family:'Blox (BRK)';-inkscape-font-specification:'Blox (BRK)';fill:#ffffff;fill-opacity:1;stroke-width:0.26458332"
         id="path2170" />
    </g>
    <g
       aria-label="L"
       transform="matrix(0.96298914,-0.15131249,0.14343228,1.0158961,0,0)"
       style="font-style:normal;font-variant:normal;font-weight:normal;font-stretch:normal;font-size:14.61277294px;line-height:1.25;font-family:DepredationPixie;-inkscape-font-specification:DepredationPixie;letter-spacing:0px;word-spacing:0px;display:inline;fill:#ffffff;fill-opacity:1;stroke:none;stroke-width:0.36531931"
       id="text1508-7">
      <path
         d="m 327.15409,63.277351 h 0.42084 q 2.66537,-0.350706 5.19046,-1.753532 v -6.242577 l -0.35071,-0.420848 q -4.48904,-1.753533 -8.90794,-3.156359 -4.34876,-1.402826 -8.76767,-2.805653 l -0.49099,-0.420847 V 11.793629 -0.13039435 l -0.28056,-0.49098918 -0.49099,-0.21042393 q -3.43692,-0.77155444 -6.59328,-2.10423934 -3.15636,-1.3326849 -6.453,0.5611305 -0.77156,0.5611305 -0.77156,0.5611305 V 54.018698 q 6.94399,2.454946 13.7477,4.699468 6.80371,2.174381 13.7477,4.559185 z m -0.35071,-1.192402 q -0.77156,-0.350706 -1.47297,-0.56113 -0.63127,-0.280566 -1.1924,-0.350707 -0.21042,-0.07014 -0.56113,-0.56113 v -4.418903 l 0.42085,-0.140283 q 0.63127,0.350707 1.33268,0.561131 0.77156,0.140282 1.54311,0.490989 0.56113,1.192402 0.35071,2.384805 -0.14029,1.192402 0,2.454945 z m -4.69947,-1.61325 q -0.70141,-0.350707 -1.54311,-0.561131 -0.84169,-0.210424 -1.54311,-0.631271 V 54.64997 h 0.56113 q 0.63128,0.140283 1.33269,0.490989 0.70141,0.280565 1.47297,0.490989 0.28056,1.192403 0.14028,2.314664 -0.14028,1.122261 0.0701,2.384804 z m -4.48904,-1.543109 q -0.70142,-0.140283 -1.47297,-0.350707 -0.70141,-0.280565 -1.40283,-0.631271 l -0.3507,-0.420848 v -4.418903 q 0.70141,0 1.47296,0.350707 0.77156,0.350706 1.61325,0.420848 l 0.49099,0.56113 v 4.418903 z m -4.69947,-1.402826 q -0.63127,-0.420848 -1.40283,-0.561131 -0.70141,-0.210424 -1.47296,-0.56113 l -0.28057,-0.420848 v -4.418903 q 0.63127,0 1.40283,0.350707 0.84169,0.350706 1.68339,0.420848 0.21042,0.140282 0.56113,0.56113 v 4.418903 z m 14.72967,-1.332685 q -0.63127,-0.140283 -1.26254,-0.420848 -0.63127,-0.350707 -1.40283,-0.490989 2.66537,-1.61325 5.40089,-0.07014 -0.77156,0.350706 -1.40283,0.490989 -0.56113,0.07014 -1.33269,0.490989 z m -19.21871,-0.210424 q -0.77156,-0.280565 -1.54311,-0.561131 -0.77156,-0.350706 -1.54311,-0.631271 -0.21043,-1.122261 -0.14028,-2.244522 0.0701,-1.192403 0,-2.454946 l 0.3507,-0.07014 q 0.63127,0.140283 1.33269,0.420848 0.77155,0.280566 1.54311,0.420848 0.49098,1.192403 0.28056,2.454946 -0.14028,1.192402 0,2.454946 z m 14.58939,-1.332685 q -0.91184,-0.350707 -1.61325,-0.56113 -0.63127,-0.280566 -1.05212,-0.420848 0.14028,-0.07014 0.3507,-0.07014 0.28057,-0.07014 0.56114,-0.280565 0.3507,0 0.77155,-0.210424 0.49099,-0.210424 0.98198,-0.350706 0.56113,0.140282 1.26254,0.420848 0.70141,0.280565 1.40283,0.350706 -0.56113,0.561131 -1.33269,0.701413 -0.70141,0.140283 -1.33268,0.420848 z m -19.21872,-0.210424 q -0.70141,-0.210424 -1.47297,-0.56113 -0.70141,-0.350707 -1.47297,-0.420848 l -0.28056,-0.420848 v -4.489044 l 0.28056,-0.07014 q 0.77156,0.210424 1.54311,0.420847 0.77156,0.210424 1.61325,0.631272 0.0701,1.122261 0,2.314664 0,1.122261 0.0701,2.384804 z m 14.58939,-1.332685 q -0.70141,-0.210424 -1.33268,-0.490989 -0.63128,-0.280565 -1.33269,-0.56113 0.56113,-0.140283 1.26255,-0.280566 0.70141,-0.210424 1.40282,-0.56113 0.63127,0.210424 1.33269,0.490989 0.77155,0.210424 1.54311,0.350707 -0.70142,0.210423 -1.47297,0.56113 -0.70142,0.350707 -1.40283,0.490989 z m -4.69947,-1.543109 q -0.63127,-0.210424 -1.26254,-0.420848 -0.63127,-0.280565 -1.33268,-0.490989 0.42084,-0.280565 1.1924,-0.420848 0.77155,-0.140282 1.54311,-0.56113 0.56113,0.140283 1.26254,0.420848 0.70141,0.280565 1.40283,0.350706 l 0.14028,0.210424 q -0.70141,0.210424 -1.47297,0.490989 -0.70141,0.210424 -1.47297,0.420848 z m -5.40088,-1.753532 q -0.77155,-0.561131 -1.61325,-0.631272 -0.84169,-0.140283 -1.47296,-0.631272 v -4.629327 l 0.3507,-0.140282 q 0.63127,0.280565 1.33269,0.490989 0.77155,0.210424 1.54311,0.490989 l 0.28056,0.490989 v 4.208479 z m -4.48904,-1.613251 q -0.70141,-0.280565 -1.47297,-0.490989 -0.70141,-0.210424 -1.47297,-0.490989 l -0.28056,-0.420848 v -4.418902 l 0.42085,-0.140283 q 0.49099,0.210424 1.26254,0.56113 0.8417,0.280566 1.61325,0.420848 0.28057,1.192403 0.14028,2.454946 -0.0701,1.192402 0.0701,2.454946 z m 4.62933,-4.489044 q -0.77156,-0.350706 -1.54311,-0.631271 -0.77156,-0.280566 -1.54311,-0.561131 -0.21043,-1.122261 -0.14028,-2.244522 0.0701,-1.192402 0,-2.454946 l 0.3507,-0.07014 q 0.63127,0.140283 1.33269,0.420848 0.77155,0.280565 1.54311,0.420848 0.49098,1.192402 0.28056,2.454946 -0.14028,1.192402 0,2.384804 z m -4.62933,-1.543108 q -0.77156,-0.350707 -1.54311,-0.631272 -0.77155,-0.280565 -1.61325,-0.631272 -0.14028,-1.05212 -0.0701,-2.174381 0.0701,-1.192402 0,-2.454946 l 0.28056,-0.210424 q 1.26255,0.701414 2.94594,0.981979 0.42085,1.192402 0.28056,2.454946 -0.14028,1.192402 0,2.454946 z m 4.48904,-4.699468 q -0.77155,-0.490989 -1.61325,-0.561131 -0.84169,-0.140282 -1.47296,-0.771554 v -4.629327 q 0.84169,0 1.61325,0.420848 0.77155,0.420848 1.68339,0.631272 0.3507,1.122261 0.21042,2.384804 -0.14028,1.192403 0,2.384805 z m -4.48904,-1.543109 q -0.70141,-0.420848 -1.47297,-0.490989 -0.70141,-0.140283 -1.47297,-0.49099 l -0.28056,-0.420847 V 30.03037 l 0.28056,-0.07014 q 0.70142,0.210424 1.40283,0.49099 0.77155,0.280565 1.54311,0.56113 l 0.28056,0.490989 v 4.208479 z m 4.62933,-4.559185 q -0.77156,-0.350707 -1.54311,-0.561131 -0.77156,-0.210424 -1.54311,-0.631272 -0.21043,-1.052119 -0.14028,-2.244522 0.0701,-1.192402 0,-2.384804 l 0.3507,-0.140283 q 0.63127,0.210424 1.33269,0.490989 0.77155,0.210424 1.54311,0.420848 l 0.28056,0.420848 v 4.418903 z m -4.62933,-1.543109 q -0.77156,-0.280566 -1.54311,-0.561131 -0.77155,-0.280565 -1.61325,-0.631272 -0.14028,-1.052119 -0.0701,-2.17438 0.0701,-1.192403 0,-2.525087 l 0.28056,-0.140283 q 0.70142,0.280565 1.40283,0.56113 0.77155,0.210424 1.54311,0.420848 0.42085,1.122261 0.28056,2.384805 -0.14028,1.192402 0,2.454946 z m 4.48904,-4.559186 q -0.63127,-0.420847 -1.40282,-0.631271 -0.77156,-0.280566 -1.47297,-0.561131 -0.35071,-1.122261 -0.21042,-2.314663 0.14028,-1.262544 0,-2.525087 0.84169,0 1.61325,0.420848 0.77155,0.420847 1.68339,0.56113 0.3507,1.192402 0.21042,2.314663 -0.14028,1.122261 0,2.384805 z m -4.48904,-1.61325 q -0.70141,-0.210424 -1.33269,-0.490989 -0.63127,-0.280565 -1.33268,-0.420848 -0.35071,-0.140282 -0.56113,-0.490989 v -4.418903 l 0.28056,-0.140282 q 0.70142,0.210424 1.40283,0.490989 0.77155,0.280565 1.54311,0.490989 l 0.28056,0.561131 v 4.208478 z m 4.48904,-4.629326 q -0.77155,-0.420848 -1.61325,-0.631272 -0.84169,-0.210424 -1.47296,-0.561131 v -4.699467 h 0.56113 q 0.63127,0.210423 1.33268,0.490989 0.70141,0.280565 1.40283,0.490989 0.3507,1.192402 0.21042,2.314663 -0.14028,1.122261 0,2.384805 z m -4.48904,-1.472968 q -0.70141,-0.420848 -1.47297,-0.56113 -0.70141,-0.210424 -1.47297,-0.490989 l -0.28056,-0.49099 v -4.418902 q 0.63127,0 1.47297,0.350706 0.91183,0.350707 1.82367,0.631272 0.28057,1.192402 0.14028,2.454946 -0.0701,1.192402 0.0701,2.454946 z m 4.48904,-4.629326 q -0.77155,-0.49099 -1.61325,-0.701413 -0.84169,-0.210424 -1.47296,-0.631272 V 6.9538781 q 0.84169,0.070141 1.61325,0.4208479 0.77155,0.3507066 1.68339,0.5611305 0.3507,1.1924023 0.21042,2.4549455 -0.14028,1.192403 0,2.384805 z m -4.48904,-1.543109 q -0.70141,-0.280565 -1.47297,-0.561131 -0.70141,-0.350706 -1.47297,-0.420848 L 300.57053,9.8998132 V 5.4809106 l 0.28056,-0.070141 q 0.70142,0.1402826 1.40283,0.4909892 0.77155,0.2805652 1.54311,0.4909891 l 0.28056,0.5611305 v 4.2084789 z m 4.48904,-4.6994681 Q 307.51452,6.252465 306.67282,6.1823237 305.83113,6.0420411 305.19986,5.4809106 V 0.85158401 q 0.84169,-0.0701413 1.61325,0.35070659 0.77155,0.4208478 1.68339,0.6312718 0.3507,1.1924023 0.21042,2.3146633 -0.14028,1.1222609 0,2.3146632 z M 303.79703,5.130204 q -0.70141,-0.2805652 -1.47297,-0.4208478 -0.70141,-0.210424 -1.47297,-0.5611305 l -0.28056,-0.4208479 v -4.41890264 l 0.42085,-0.14028262 q 0.49099,0.21042393 1.26254,0.56113049 0.8417,0.28056525 1.61325,0.42084787 0.28057,1.1924023 0.14028,2.4549459 -0.0701,1.1924023 0.0701,2.4549459 z m 5.40088,-4.27861999 q -0.70141,-0.28056524 -1.33269,-0.49098918 -0.63127,-0.28056524 -1.33268,-0.49098918 2.24452,-1.40282625 5.40088,0 -0.63127,0.35070656 -1.33268,0.5611305 -0.70142,0.14028262 -1.40283,0.42084786 z m -4.69947,-1.54310885 q -0.63127,-0.28056525 -1.26254,-0.49098916 -0.63127,-0.2805653 -1.33269,-0.4909892 0.56113,-0.1402826 1.26255,-0.3507066 0.70141,-0.2104239 1.33268,-0.5611305 0.70142,0.210424 1.40283,0.4909892 0.77155,0.2805653 1.54311,0.4208479 -0.70142,0.1402826 -1.47297,0.4909892 -0.70141,0.28056522 -1.47297,0.49098916 z"
         style="font-style:normal;font-variant:normal;font-weight:normal;font-stretch:normal;font-size:70.14131165px;font-family:'Blox (BRK)';-inkscape-font-specification:'Blox (BRK)';fill:#ffffff;fill-opacity:1;stroke-width:0.36531931"
         id="path2173" />
    </g>
    <g
       aria-label="F"
       transform="matrix(0.96298914,-0.15131249,0.14343228,1.0158961,0,0)"
       style="font-style:normal;font-variant:normal;font-weight:normal;font-stretch:normal;font-size:14.61277294px;line-height:1.25;font-family:DepredationPixie;-inkscape-font-specification:DepredationPixie;letter-spacing:0px;word-spacing:0px;display:inline;fill:#ffffff;fill-opacity:1;stroke:none;stroke-width:0.36531931"
       id="text1508">
      <path
         d="m 258.04175,54.124252 h 0.21042 q 1.26255,0 2.38481,-0.56113 1.12226,-0.561131 2.24452,-0.631272 0.3507,-0.140283 0.42085,-0.350707 0.0701,-0.210424 0.3507,-0.210424 V 31.959598 l 0.21043,-0.350707 0.21042,-0.07014 q 1.54311,0.56113 3.08622,1.122261 1.54311,0.56113 3.15636,1.122261 3.2265,1.052119 6.24257,-0.701413 0.28057,-0.210424 0.35071,-0.350707 0.14028,-0.210424 0.42085,-0.210424 v -6.382859 l -0.21043,-0.350707 q -3.2265,-1.122261 -6.59328,-2.17438 -3.36678,-1.122261 -6.59328,-2.174381 l -0.28057,-0.420848 V 7.4101386 l 0.42085,-0.2104239 q 2.94594,1.0521197 5.96201,2.1743807 3.08622,1.0521196 6.453,2.1042396 2.59523,-0.420848 5.47102,-1.6833918 v -6.312718 l -0.3507,-0.4208479 q -4.0682,-0.7715544 -8.13639,-2.17438066 -4.0682,-1.47296754 -8.1364,-3.57720694 -8.06625,-4.27862 -16.20264,-1.7535327 0.14028,13.958121 0,27.775959 -0.0701,13.817839 0.14028,27.705818 2.24453,0.911838 4.41891,1.543109 2.24452,0.561131 4.34876,1.543109 z m -0.21043,-1.192402 q -0.70141,-0.210424 -1.40282,-0.561131 -0.70142,-0.350706 -1.47297,-0.420847 l -0.28057,-0.420848 v -4.418903 l 0.28057,-0.07014 q 0.70141,0.140282 1.40283,0.420848 0.70141,0.210424 1.47296,0.56113 l 0.35071,0.490989 v 4.208479 z m -4.55918,-1.543109 q -0.77156,-0.350707 -1.47297,-0.56113 -0.70141,-0.280566 -1.40283,-0.420848 l -0.3507,-0.420848 v -4.418903 l 0.3507,-0.210424 q 0.70142,0.350707 1.47297,0.631272 0.77156,0.280565 1.61325,0.561131 0.28057,1.122261 0.14028,2.244521 -0.14028,1.122261 0.0702,2.384805 z m 4.48904,-4.629327 q -0.77155,-0.490989 -1.61325,-0.56113 -0.84169,-0.140283 -1.47297,-0.701413 v -4.418903 l 0.28057,-0.210424 q 0.70141,0.140283 1.40283,0.420848 0.77155,0.280565 1.47296,0.561131 0.49099,1.122261 0.28057,2.384804 -0.14028,1.192403 0.0701,2.454946 z m -4.48904,-1.543108 q -0.70141,-0.280566 -1.47297,-0.420848 -0.70141,-0.210424 -1.40283,-0.561131 l -0.3507,-0.420848 v -4.418902 q 0.84169,0 1.61325,0.420848 0.77155,0.350706 1.68339,0.490989 0.49099,1.122261 0.28056,2.384804 -0.14028,1.192403 0.0702,2.454946 z m 4.55918,-4.489044 q -0.70141,-0.280566 -1.47296,-0.561131 -0.77156,-0.280565 -1.54311,-0.631272 -0.21043,-1.052119 -0.14029,-2.17438 0.0702,-1.192403 0,-2.454946 l 0.28057,-0.07014 q 0.70141,0.140283 1.40283,0.420848 0.77155,0.280566 1.47296,0.420848 0.49099,1.192403 0.28057,2.384805 -0.14028,1.192402 0.0701,2.454946 z m -4.55918,-1.543109 q -0.77156,-0.420848 -1.54311,-0.561131 -0.77155,-0.210424 -1.54311,-0.631271 -0.21042,-1.05212 -0.14028,-2.174381 0.0701,-1.192402 0,-2.384805 l 0.3507,-0.280565 q 0.49099,0.280565 1.05212,0.490989 0.56113,0.210424 1.12227,0.420848 h 0.42084 q 0.42085,0.140283 0.70142,0.631272 v 4.138337 z m 4.55918,-4.559185 q -0.70141,-0.420848 -1.40282,-0.49099 -0.70142,-0.140282 -1.47297,-0.490989 L 254.67496,33.152 v -4.348761 l 0.28057,-0.140283 q 0.70141,0.210424 1.40283,0.490989 0.77155,0.280565 1.47296,0.490989 l 0.35071,0.561131 v 4.138337 z m -4.55918,-1.543109 q -0.70141,-0.420848 -1.47297,-0.490989 -0.70141,-0.140283 -1.40283,-0.49099 l -0.3507,-0.490989 V 27.26013 l 0.49099,-0.140283 q 0.42085,0.210424 1.12226,0.561131 0.77155,0.280565 1.47297,0.350706 0.21042,0.07014 0.56113,0.561131 v 4.348761 z m 18.1666,0 q -0.77156,-0.490989 -1.61325,-0.561131 -0.8417,-0.140282 -1.47297,-0.771554 v -4.348762 l 0.35071,-0.280565 q 0.63127,0.210424 1.33268,0.490989 0.77156,0.280566 1.54311,0.561131 0.49099,1.122261 0.28057,2.384804 -0.21043,1.192403 0,2.384805 z m -4.48905,-1.543109 q -0.70141,-0.350707 -1.40282,-0.490989 -0.70142,-0.140283 -1.47297,-0.49099 l -0.35071,-0.490989 v -4.348761 q 0.8417,0 1.61325,0.420848 0.77156,0.350706 1.6834,0.490989 0.49098,1.122261 0.28056,2.314663 -0.14028,1.192403 0.0701,2.454946 z m -4.48904,-1.472968 q -0.77155,-0.420848 -1.54311,-0.56113 -0.70141,-0.210424 -1.54311,-0.631272 -0.3507,-1.122261 -0.21042,-2.244522 0.14028,-1.122261 0,-2.314663 l 0.35071,-0.210424 q 0.70141,0.280565 1.47296,0.490989 0.77156,0.210424 1.54311,0.56113 0.35071,1.192403 0.21043,2.314664 -0.14029,1.052119 0,2.244522 z m -4.62933,-1.472967 q -0.70141,-0.350707 -1.47296,-0.631272 -0.77156,-0.280565 -1.54311,-0.561131 -0.21043,-1.052119 -0.14029,-2.244522 0.0702,-1.192402 0,-2.384804 l 0.28057,-0.140283 q 0.70141,0.210424 1.40283,0.490989 0.77155,0.210424 1.47296,0.420848 0.49099,1.122261 0.28057,2.384805 -0.14028,1.192402 0.0701,2.384804 z m 14.5894,-1.332685 q -0.63128,-0.210424 -1.33269,-0.420848 -0.70141,-0.210424 -1.40282,-0.561131 2.31466,-1.122261 5.40088,-0.140282 -0.42085,0.490989 -1.33269,0.631272 -0.84169,0.140282 -1.33268,0.490989 z m -19.14858,-0.210424 q -0.70141,-0.420848 -1.47297,-0.561131 -0.70141,-0.210424 -1.40283,-0.56113 l -0.3507,-0.420848 v -4.418903 q 0.63127,0 1.47297,0.420848 0.91183,0.350707 1.75353,0.490989 -0.14028,0 0.42085,0.631272 v 4.138338 z m 14.58939,-1.332685 q -0.70141,-0.140283 -1.33268,-0.420848 -0.63128,-0.350706 -1.33269,-0.420848 0.42085,-0.350706 1.1924,-0.490989 0.77156,-0.140283 1.47297,-0.56113 0.49099,0.140282 1.1924,0.420847 0.70142,0.280566 1.40283,0.420848 -0.56113,0.490989 -1.33269,0.561131 -0.70141,0.07014 -1.26254,0.490989 z m -4.62933,-1.543109 q -0.70141,-0.140283 -1.33268,-0.420848 -0.63127,-0.280565 -1.33269,-0.420848 0.42085,-0.210424 1.12227,-0.420848 0.77155,-0.280565 1.40282,-0.56113 0.63127,0.210424 1.33269,0.420848 0.70141,0.140282 1.40282,0.420848 -0.70141,0.350706 -1.33268,0.490989 -0.56113,0.140283 -1.26255,0.490989 z m -5.40088,-1.753533 q -0.70141,-0.210424 -1.33268,-0.490989 -0.56113,-0.280565 -1.26254,-0.350706 -0.28057,-0.07014 -0.56114,-0.561131 V 16.59865 l 0.28057,-0.07014 q 0.70141,0.140283 1.40283,0.490989 0.77155,0.280566 1.47296,0.49099 l 0.35071,0.56113 v 4.138337 z m -4.55918,-1.543109 q -1.82368,-0.771554 -2.66537,-0.841695 -0.35071,-0.140283 -0.56113,-0.561131 v -4.418902 l 0.49099,-0.07014 q 0.56113,0.210424 1.26254,0.561131 0.77156,0.280565 1.54311,0.420848 0.49099,1.122261 0.28056,2.384804 -0.14028,1.192403 0.0702,2.454946 z m 4.55918,-4.489043 q -0.49099,-0.210424 -1.1924,-0.49099 -0.70141,-0.280565 -1.68339,-0.631271 l -0.28057,-0.420848 v -4.348762 q 0.63128,0 1.47297,0.350707 0.8417,0.280565 1.75353,0.631272 0.35071,1.122261 0.21043,2.244522 -0.14028,1.122261 0.0701,2.384804 z m -4.55918,-1.543109 q -0.70141,-0.420848 -1.47297,-0.561131 -0.70141,-0.210424 -1.40283,-0.490989 l -0.3507,-0.420848 V 8.9532475 q 0.63127,0 1.47297,0.3507065 0.91183,0.3507066 1.82367,0.4909892 0.49099,1.1924028 0.28056,2.4549458 -0.14028,1.192402 0.0702,2.384805 z m 4.55918,-4.559186 Q 257.12991,10.005367 256.4285,9.7248019 255.72708,9.3740954 254.95553,9.2338127 L 254.67496,8.8129649 V 4.4642035 l 0.28057,-0.1402826 q 0.70141,0.2104239 1.40283,0.4909892 0.77155,0.2805652 1.47296,0.4909892 l 0.35071,0.5611305 v 4.2084782 z m 18.23674,0 Q 275.36665,9.8650845 274.5951,9.7248019 273.89368,9.514378 273.19227,9.1636714 L 272.84156,8.7428235 V 4.5343448 l 0.35071,-0.2104239 q 0.70141,0.2104239 1.47297,0.5611305 0.77155,0.2805653 1.61325,0.4208479 0.28056,1.122261 0.14028,2.3848046 -0.14028,1.2625436 0.0701,2.4549461 z M 253.27214,8.7428235 Q 252.57073,8.4622583 251.93945,8.1816931 251.30818,7.9011278 250.60677,7.8309865 250.3262,7.7608452 250.04564,7.269856 V 2.9210947 l 0.3507,-0.210424 q 0.70142,0.3507066 1.47297,0.6312719 0.77156,0.2104239 1.61325,0.5611304 0.28057,1.122261 0.14028,2.244522 -0.14028,1.122261 0.0702,2.3146633 z m 18.30688,0 Q 270.87761,8.4622583 270.24634,8.1816931 269.61506,7.9011278 268.91365,7.8309865 268.63309,7.7608452 268.35252,7.269856 V 2.9210947 l 0.35071,-0.1402826 q 0.63127,0.2104239 1.33268,0.4909891 0.77156,0.2805653 1.54311,0.4909892 l 0.28057,0.5611305 V 8.4622583 Z M 266.94969,7.1997147 Q 266.108,6.8490081 265.40659,6.6385842 264.77531,6.358019 264.28432,6.2878776 264.00376,6.2177363 263.72319,5.7968885 V 1.3779858 l 0.49099,-0.1402826 q 0.63127,0.2805652 1.33269,0.5611305 0.77155,0.2805652 1.47297,0.4208479 0.49098,1.1924023 0.28056,2.4549459 -0.14028,1.1924023 0.0701,2.3848046 z M 262.32037,5.6566058 Q 260.98768,4.9551927 259.655,4.8149101 259.51472,4.6746275 259.37443,4.5343448 259.23415,4.3940622 259.16401,4.2537796 v -4.41890263 l 0.42085,-0.0701413 q 0.63127,0.35070655 1.33268,0.49098918 0.77156,0.14028262 1.54311,0.49098918 0.49099,1.12226098 0.28057,2.38480458 -0.14029,1.1924023 0,2.3848046 z m 14.58939,-1.1924023 q -0.56113,-0.4208478 -1.26254,-0.5611305 -0.70142,-0.1402826 -1.40283,-0.4208478 2.80565,-1.3326849 5.40088,0 -0.63127,0.2104239 -1.33268,0.4208478 -0.70142,0.1402827 -1.40283,0.5611305 z M 257.76118,4.113497 q -0.77155,-0.2805653 -1.61325,-0.4909892 -0.84169,-0.2805652 -1.47297,-0.8416957 v -4.3487614 l 0.28057,-0.2805652 q 0.70141,0.4208479 1.40283,0.6312718 0.77155,0.1402826 1.47296,0.42084786 0.49099,1.1924023 0.28057,2.38480464 -0.14028,1.1924023 0.0701,2.3848046 z m 14.65954,-1.1924023 q -0.63128,-0.4208479 -1.33269,-0.4909892 -0.70141,-0.070141 -1.40282,-0.4909892 0.56113,-0.3507065 1.1924,-0.4208479 0.63127,-0.1402826 1.33268,-0.4909891 0.63127,0 1.33269,0.3507065 0.77155,0.3507066 1.54311,0.4909892 -0.42085,0.4909892 -1.33269,0.5611305 -0.84169,0 -1.33268,0.4909892 z M 253.34228,2.7106707 Q 252.57073,2.2898229 251.65889,2.0793989 250.74705,1.868975 250.04564,1.2377032 v -4.3487613 l 0.3507,-0.210424 q 0.70142,0.4208479 1.47297,0.5611305 0.77156,0.1402827 1.61325,0.4909892 0.28057,1.1924023 0.14028,2.3146633 -0.14028,1.122261 0.0702,2.3146633 z m 14.51925,-1.3326849 q -0.70141,-0.1402826 -1.33268,-0.42084785 -0.63128,-0.35070655 -1.33269,-0.49098918 2.45495,-1.61325017 5.2606,-0.0701413 -0.70141,0.42084787 -1.33269,0.49098918 -0.56113,0.0701413 -1.26254,0.49098916 z m -4.62933,-1.54310883 q -0.70141,-0.21042394 -1.33268,-0.42084787 -0.63127,-0.28056525 -1.33269,-0.5611305 2.45495,-1.1924023 5.40089,0 -0.35071,0.1402826 -1.05212,0.42084788 -0.70142,0.21042393 -1.6834,0.56113049 z m -4.62932,-1.54310887 q -0.70142,-0.2104239 -1.33269,-0.4208479 -0.56113,-0.2805652 -1.26254,-0.5611305 0.14028,-0.070141 0.35071,-0.070141 0.21042,-0.070141 0.49099,-0.2104239 0.42084,0 0.84169,-0.2104239 0.42085,-0.2805653 0.91184,-0.3507066 0.70141,0.1402826 1.40282,0.4208479 0.70142,0.2805652 1.47297,0.4208478 -0.77155,0.2805653 -1.47297,0.5611305 -0.70141,0.210424 -1.40282,0.4208479 z m -4.62933,-1.5431088 q -0.63127,-0.2805653 -1.26254,-0.4208479 -0.63127,-0.2104239 -1.33269,-0.4909892 2.38481,-1.2625436 5.47103,0 l -0.14029,0.2104239 q -0.63127,0 -1.26254,0.2805653 -0.56113,0.2104239 -1.33269,0.4208479 z"
         style="font-style:normal;font-variant:normal;font-weight:normal;font-stretch:normal;font-size:70.14131165px;font-family:'Blox (BRK)';-inkscape-font-specification:'Blox (BRK)';fill:#ffffff;fill-opacity:1;stroke-width:0.36531931"
         id="path2176" />
    </g>
  </g>
</svg>
